# xmcd
#
# Track frame offsets:
#	150
#	13395
#	25927
#	38642
#	52482
#	64482
#	78157
#	96555
#	108522
#	121317
#	130947
#	142760
#	156590
#	167410
#	179002
#	187980
#	200487
#	213977
#	225955
#	239840
#	252517
#	264465
#	281685
#	293137
#	303647
#	317260
#
# Disc length: 4493
#
# Revision: 2
# Processed by: cddbd v1.5.1PL0 Copyright (c) Steve Scherf et al.
# Submitted via: CDmax 2.0
# Normalized: r1:DSETVAR1
#
DISCID=88118b1a
DTITLE=Various Artist - Uncut Magazine: Keith Richards' Personal Compilation'The Devil's Music'
DYEAR=2002
DGENRE=Blues
TTITLE0=Amos Milburn - Down The Road Apiece
TTITLE1=Jackie Brenston and The Delta Cats - Rocket 88
TTITLE2=Robert Johnson - Preachin' Blues
TTITLE3=Muddy Waters - Rollin' Stone
TTITLE4=Jimmy Rogers - Goin' Away Baby
TTITLE5=Leadbelly - The Midnight Special
TTITLE6=Clarence 'Gatemouth' Brown - Okie Dokie Stomp
TTITLE7=Clifton Chenier - Ay-Te Te Fee
TTITLE8=Professor Longhair and His Shuffling Hungarians - Mardi Gras In New Orleans
TTITLE9=Little Richard - Good Golly Miss Molly
TTITLE10=Billie Holiday - He's Funny That Way
TTITLE11=John Lee Hooker - I'm In The Mood
TTITLE12=Bob Marley and The Wailers - Jah Is Mighty
TTITLE13=Hank Williams - You Win Again
TTITLE14=Ike and Tina Turner - I Can't Believe What You Say
TTITLE15=BB King - Every Day I Have The Blues
TTITLE16=T-Bone Walker - (They Call It) Stormy Monday
TTITLE17=Howlin' Wolf - Moanin' At Midnight
TTITLE18=Blind Willie McTell - Talkin' To Your Mama
TTITLE19=Clarence 'Bon Ton' Garlow - Bon Ton Roulet
TTITLE20=Aaron Neville - Tell It Like It Is
TTITLE21=Albert King - That's What The Blues Is All bout
TTITLE22=Irma Thomas - Ruler Of My Heart
TTITLE23=Otis Redding - Pain In My Heart (alternate take)
TTITLE24=Booker T and The MGs - Baby, Scratch My Back
TTITLE25=Al Green - Take Me To the River
EXTD=YEAR: 2002
EXTT0=
EXTT1=
EXTT2=
EXTT3=
EXTT4=
EXTT5=
EXTT6=
EXTT7=
EXTT8=
EXTT9=
EXTT10=
EXTT11=
EXTT12=
EXTT13=
EXTT14=
EXTT15=
EXTT16=
EXTT17=
EXTT18=
EXTT19=
EXTT20=
EXTT21=
EXTT22=
EXTT23=
EXTT24=
EXTT25=
PLAYORDER=
